<?xml version="1.0" standalone="no"?>
<!DOCTYPE svg PUBLIC "-//W3C//DTD SVG 20010904//EN"
 "http://www.w3.org/TR/2001/REC-SVG-20010904/DTD/svg10.dtd">
<svg version="1.0" xmlns="http://www.w3.org/2000/svg"
 width="801.000000pt" height="487.000000pt" viewBox="0 0 801.000000 487.000000"
 preserveAspectRatio="xMidYMid meet">

<g transform="translate(0.000000,487.000000) scale(0.100000,-0.100000)"
fill="#000000" stroke="none">
<path d="M1355 4370 c-270 -23 -530 -76 -644 -133 -79 -39 -92 -57 -69 -94 20
-33 50 -40 81 -20 27 17 424 55 437 41 4 -5 13 -76 19 -159 19 -254 41 -608
38 -611 -5 -4 -255 -34 -289 -34 -45 0 -62 -20 -54 -64 14 -72 67 -86 245 -65
64 7 120 14 126 14 19 0 58 -249 74 -481 6 -78 18 -182 27 -232 l16 -90 45 -6
c25 -3 64 -6 86 -6 l39 0 -7 78 c-4 42 -26 196 -50 342 -24 146 -46 295 -50
332 l-7 66 53 6 c30 3 130 10 222 16 284 19 420 48 481 104 49 44 55 73 19 87
-31 12 -86 10 -511 -22 -155 -12 -285 -19 -288 -17 -2 3 -8 179 -11 390 l-6
385 24 6 c13 4 87 10 164 13 243 11 436 -19 735 -115 196 -63 309 -91 393 -98
71 -5 77 -5 77 13 0 32 -57 120 -99 153 -98 78 -331 152 -581 186 -147 20
-570 28 -735 15z"/>
<path d="M3426 3274 c-12 -32 -5 -97 30 -259 20 -91 33 -169 30 -172 -3 -3
-23 5 -44 19 -193 128 -329 108 -391 -57 -19 -51 -22 -75 -19 -155 3 -80 8
-105 31 -153 33 -66 72 -98 131 -104 90 -11 186 41 269 143 26 32 52 61 57 62
6 2 10 -20 10 -50 0 -64 18 -102 49 -106 38 -6 43 9 26 74 -8 32 -34 163 -56
289 -38 217 -74 412 -86 463 -6 25 -28 29 -37 6z m-91 -418 c28 -13 71 -42 98
-65 42 -38 47 -47 47 -84 0 -54 -42 -128 -104 -185 -56 -52 -100 -72 -157 -72
-81 0 -133 92 -133 235 0 161 110 237 249 171z"/>
<path d="M2039 2930 c-92 -49 -153 -165 -152 -290 0 -102 44 -169 143 -221 39
-21 59 -24 145 -24 106 0 156 16 198 63 28 30 0 34 -82 11 -128 -35 -222 -21
-281 40 -124 130 -46 367 127 388 48 5 54 3 81 -23 36 -37 48 -100 28 -148
-22 -52 -45 -60 -158 -52 -94 6 -98 5 -98 -14 0 -28 37 -40 123 -40 78 0 137
21 172 59 14 17 20 40 23 89 4 78 -15 124 -68 160 -44 29 -147 30 -201 2z"/>
<path d="M2585 2921 c-105 -60 -165 -214 -135 -342 17 -72 91 -147 169 -172
100 -32 238 -15 298 38 45 39 20 48 -65 25 -214 -59 -342 19 -342 210 1 98 61
185 149 211 92 27 151 -15 151 -108 0 -100 -31 -120 -170 -109 -86 6 -90 6
-90 -14 0 -28 36 -40 123 -40 131 1 197 53 197 155 0 65 -30 129 -72 155 -53
32 -149 28 -213 -9z"/>
<path d="M5065 2921 c-105 -60 -165 -215 -134 -343 17 -72 93 -150 169 -172
106 -32 256 -10 305 44 32 35 6 42 -70 20 -210 -60 -345 18 -345 200 0 110 59
195 151 220 94 26 141 -7 147 -103 3 -51 0 -67 -16 -87 -20 -24 -25 -25 -131
-24 -102 2 -111 0 -111 -17 0 -28 32 -39 117 -39 95 0 153 23 183 72 42 69 13
198 -54 239 -50 31 -148 26 -211 -10z"/>
<path d="M4480 2884 c-30 -14 -74 -46 -97 -71 l-42 -45 -46 45 c-79 79 -184
86 -250 17 l-29 -30 -13 31 c-7 17 -18 29 -25 27 -19 -6 -20 -79 -6 -267 11
-139 16 -166 31 -175 30 -18 49 17 40 79 -3 27 -7 88 -7 135 -1 96 12 127 67
160 94 58 175 -8 223 -180 29 -106 51 -150 74 -150 27 0 27 41 0 135 -27 95
-26 118 10 159 44 49 104 76 173 76 49 0 61 -4 91 -30 58 -51 71 -103 69 -268
-2 -142 -2 -143 20 -140 34 5 49 50 51 152 1 107 -25 204 -75 279 -58 88 -153
111 -259 61z"/>
<path d="M5490 2440 c0 -6 338 -10 923 -12 843 -3 926 -5 973 -21 112 -38 133
-91 72 -183 -64 -95 -188 -152 -349 -161 l-96 -6 19 -71 c27 -99 29 -207 4
-235 -37 -41 -107 -19 -191 60 -30 29 -55 48 -56 43 0 -5 -1 -65 -2 -134 -2
-103 -5 -131 -20 -153 -25 -39 -44 -43 -85 -21 -39 21 -140 141 -174 208 l-22
41 -6 -35 c-11 -61 -42 -113 -106 -178 -102 -103 -168 -118 -227 -53 -46 51
-52 99 -43 333 7 203 3 221 -62 280 -97 87 -174 108 -407 108 -193 0 -205 -3
-205 -49 0 -19 18 -42 67 -86 183 -166 247 -248 295 -379 19 -51 23 -57 32
-40 23 39 74 84 98 84 39 0 61 -33 66 -100 2 -33 8 -60 12 -60 5 0 20 20 34
45 15 25 31 45 36 45 6 0 10 -21 10 -47 0 -27 5 -65 11 -86 11 -42 70 -107 97
-107 25 0 82 -97 82 -139 0 -41 -46 -87 -96 -97 -19 -3 -34 -7 -34 -8 0 0 14
-28 30 -60 47 -92 38 -179 -25 -236 -21 -20 -37 -25 -78 -25 -29 0 -60 2 -70
5 -15 4 -22 -6 -37 -49 -26 -71 -62 -117 -105 -131 -94 -31 -157 38 -171 189
l-7 70 -31 -24 c-70 -53 -159 -71 -204 -39 -30 21 -29 81 2 156 l24 58 -42 0
c-75 0 -136 62 -136 138 0 44 54 88 129 103 l59 13 -36 26 c-85 62 -150 158
-136 203 11 37 62 82 127 113 73 34 77 38 77 83 0 49 -35 114 -77 147 -49 37
-218 122 -335 169 -93 36 -97 37 -139 24 -23 -8 -45 -20 -47 -28 -4 -11 0 -12
14 -6 50 22 99 17 182 -19 106 -45 290 -141 319 -165 34 -28 63 -83 63 -119 0
-29 -5 -34 -53 -56 -101 -44 -164 -119 -153 -181 7 -37 77 -140 106 -155 24
-13 26 -30 5 -30 -31 0 -95 -41 -110 -70 -42 -82 16 -194 113 -215 17 -3 32
-8 32 -10 0 -1 -7 -19 -15 -38 -8 -20 -15 -59 -15 -86 0 -42 4 -53 26 -70 37
-29 114 -28 181 3 l52 24 6 -41 c20 -130 71 -197 149 -197 65 0 104 31 146
115 l34 71 56 -4 c71 -4 116 19 147 78 29 55 30 138 3 199 -11 24 -20 45 -20
47 0 2 15 10 33 18 78 32 99 112 52 195 -14 24 -24 44 -23 45 85 33 179 118
226 204 l29 53 57 -76 c93 -124 169 -163 216 -113 29 31 40 80 40 181 l0 88
31 -23 c94 -71 168 -89 208 -49 37 37 38 94 5 278 -5 28 -4 31 14 27 35 -10
191 24 256 54 114 53 186 138 186 219 0 70 -52 111 -165 132 -77 14 -1855 16
-1855 1z m413 -239 c65 -25 130 -72 161 -114 20 -27 21 -40 18 -180 -3 -147
-4 -151 -30 -183 -15 -18 -30 -33 -33 -33 -4 -1 -9 13 -13 31 -16 80 -88 102
-151 47 -20 -18 -37 -30 -38 -28 -2 2 -19 38 -39 79 -48 97 -112 176 -221 269
-94 80 -112 103 -103 127 5 13 33 15 198 12 173 -3 199 -6 251 -27z"/>
</g>
</svg>
